{
    "asset" : {
        "generator" : "Khronos glTF Blender I/O v1.2.75",
        "version" : "2.0"
    },
    "scene" : 0,
    "scenes" : [
        {
            "name" : "Scene",
            "nodes" : [
                0,
                1,
                2,
                3,
                4,
                5,
                6,
                7,
                8
            ]
        }
    ],
    "nodes" : [
        {
            "name" : "Light.001",
            "rotation" : [
                -0.272171288728714,
                0.5709475874900818,
                -0.1690758317708969,
                -0.7558802962303162
            ],
            "translation" : [
                -3.913952589035034,
                5.903862476348877,
                2.6969783306121826
            ]
        },
        {
            "name" : "Camera.001",
            "rotation" : [
                -0.20870357751846313,
                0.7804826498031616,
                -0.48353609442710876,
                -0.33687159419059753
            ],
            "translation" : [
                -7.196598052978516,
                4.958308219909668,
                -5.234267711639404
            ]
        },
        {
            "mesh" : 0,
            "name" : "\u5713\u67f1\u9ad4",
            "rotation" : [
                -0.7070087194442749,
                0.7070087790489197,
                0.011775132268667221,
                0.011775238439440727
            ],
            "scale" : [
                2.1338610649108887,
                0.6386833190917969,
                2.1338610649108887
            ],
            "translation" : [
                -3.4867656230926514,
                9.497207641601562,
                1.6915239095687866
            ]
        },
        {
            "mesh" : 1,
            "name" : "\u5713\u67f1\u9ad4.001",
            "rotation" : [
                0,
                0.7071067690849304,
                0,
                0.7071068286895752
            ],
            "scale" : [
                2.0609750747680664,
                2.2278311252593994,
                2.0609750747680664
            ],
            "translation" : [
                0.002375960350036621,
                0,
                1.691525936126709
            ]
        },
        {
            "mesh" : 2,
            "name" : "\u5713\u67f1\u9ad4.002",
            "rotation" : [
                -0.7070087194442749,
                0.7070087790489197,
                0.011775132268667221,
                0.011775238439440727
            ],
            "scale" : [
                1.1324323415756226,
                1.0766421556472778,
                1.1324323415756226
            ],
            "translation" : [
                -2.243593454360962,
                9.497207641601562,
                1.6915241479873657
            ]
        },
        {
            "name" : "Light.002",
            "rotation" : [
                0.16907575726509094,
                0.7558803558349609,
                -0.27217137813568115,
                0.570947527885437
            ],
            "translation" : [
                4.076245307922363,
                5.903861999511719,
                -1.0054539442062378
            ]
        },
        {
            "name" : "Camera.002",
            "rotation" : [
                0.483536034822464,
                0.33687159419059753,
                -0.20870360732078552,
                0.7804827094078064
            ],
            "translation" : [
                7.358891487121582,
                4.958309173583984,
                6.925790786743164
            ]
        },
        {
            "name" : "Light",
            "rotation" : [
                0.16907575726509094,
                0.7558803558349609,
                -0.27217137813568115,
                0.570947527885437
            ],
            "translation" : [
                4.076245307922363,
                5.903861999511719,
                -1.0054539442062378
            ]
        },
        {
            "name" : "Camera",
            "rotation" : [
                0.483536034822464,
                0.33687159419059753,
                -0.20870360732078552,
                0.7804827094078064
            ],
            "translation" : [
                7.358891487121582,
                4.958309173583984,
                6.925790786743164
            ]
        }
    ],
    "materials" : [
        {
            "doubleSided" : true,
            "emissiveFactor" : [
                0,
                0,
                0
            ],
            "name" : "Material.001",
            "pbrMetallicRoughness" : {
                "baseColorFactor" : [
                    0.3049819767475128,
                    0.0088410135358572,
                    0.015633881092071533,
                    1
                ],
                "metallicFactor" : 0,
                "roughnessFactor" : 0.5
            }
        },
        {
            "doubleSided" : true,
            "emissiveFactor" : [
                0,
                0,
                0
            ],
            "name" : "\u6750\u8cea.004",
            "pbrMetallicRoughness" : {
                "baseColorTexture" : {
                    "index" : 0,
                    "texCoord" : 0
                },
                "metallicRoughnessTexture" : {
                    "index" : 1,
                    "texCoord" : 0
                }
            }
        },
        {
            "doubleSided" : true,
            "emissiveFactor" : [
                0,
                0,
                0
            ],
            "name" : "\u6750\u8cea.002",
            "pbrMetallicRoughness" : {
                "baseColorFactor" : [
                    0.07035739719867706,
                    0.07035739719867706,
                    0.07035739719867706,
                    1
                ],
                "metallicFactor" : 1,
                "roughnessFactor" : 0
            }
        }
    ],
    "meshes" : [
        {
            "name" : "\u5713\u67f1\u9ad4",
            "primitives" : [
                {
                    "attributes" : {
                        "POSITION" : 0,
                        "NORMAL" : 1,
                        "TEXCOORD_0" : 2
                    },
                    "indices" : 3,
                    "material" : 0
                }
            ]
        },
        {
            "name" : "\u5713\u67f1\u9ad4.001",
            "primitives" : [
                {
                    "attributes" : {
                        "POSITION" : 4,
                        "NORMAL" : 5,
                        "TEXCOORD_0" : 6
                    },
                    "indices" : 7,
                    "material" : 1
                }
            ]
        },
        {
            "name" : "\u5713\u67f1\u9ad4.002",
            "primitives" : [
                {
                    "attributes" : {
                        "POSITION" : 8,
                        "NORMAL" : 9,
                        "TEXCOORD_0" : 10
                    },
                    "indices" : 3,
                    "material" : 2
                }
            ]
        }
    ],
    "textures" : [
        {
            "source" : 0
        },
        {
            "source" : 0
        }
    ],
    "images" : [
        {
            "mimeType" : "image/jpeg",
            "name" : "se",
            "uri" : "se.jpg"
        }
    ],
    "accessors" : [
        {
            "bufferView" : 0,
            "componentType" : 5126,
            "count" : 244,
            "max" : [
                1,
                1,
                1
            ],
            "min" : [
                -1,
                -1,
                -1
            ],
            "type" : "VEC3"
        },
        {
            "bufferView" : 1,
            "componentType" : 5126,
            "count" : 244,
            "type" : "VEC3"
        },
        {
            "bufferView" : 2,
            "componentType" : 5126,
            "count" : 244,
            "type" : "VEC2"
        },
        {
            "bufferView" : 3,
            "componentType" : 5123,
            "count" : 372,
            "type" : "SCALAR"
        },
        {
            "bufferView" : 4,
            "componentType" : 5126,
            "count" : 664,
            "max" : [
                7.153294563293457,
                14.29939079284668,
                1.486797571182251
            ],
            "min" : [
                -1.3651975393295288,
                -1,
                -1.48679780960083
            ],
            "type" : "VEC3"
        },
        {
            "bufferView" : 5,
            "componentType" : 5126,
            "count" : 664,
            "type" : "VEC3"
        },
        {
            "bufferView" : 6,
            "componentType" : 5126,
            "count" : 664,
            "type" : "VEC2"
        },
        {
            "bufferView" : 7,
            "componentType" : 5123,
            "count" : 2088,
            "type" : "SCALAR"
        },
        {
            "bufferView" : 8,
            "componentType" : 5126,
            "count" : 244,
            "max" : [
                1,
                1,
                1
            ],
            "min" : [
                -1,
                -1,
                -1
            ],
            "type" : "VEC3"
        },
        {
            "bufferView" : 9,
            "componentType" : 5126,
            "count" : 244,
            "type" : "VEC3"
        },
        {
            "bufferView" : 10,
            "componentType" : 5126,
            "count" : 244,
            "type" : "VEC2"
        }
    ],
    "bufferViews" : [
        {
            "buffer" : 0,
            "byteLength" : 2928,
            "byteOffset" : 0
        },
        {
            "buffer" : 0,
            "byteLength" : 2928,
            "byteOffset" : 2928
        },
        {
            "buffer" : 0,
            "byteLength" : 1952,
            "byteOffset" : 5856
        },
        {
            "buffer" : 0,
            "byteLength" : 744,
            "byteOffset" : 7808
        },
        {
            "buffer" : 0,
            "byteLength" : 7968,
            "byteOffset" : 8552
        },
        {
            "buffer" : 0,
            "byteLength" : 7968,
            "byteOffset" : 16520
        },
        {
            "buffer" : 0,
            "byteLength" : 5312,
            "byteOffset" : 24488
        },
        {
            "buffer" : 0,
            "byteLength" : 4176,
            "byteOffset" : 29800
        },
        {
            "buffer" : 0,
            "byteLength" : 2928,
            "byteOffset" : 33976
        },
        {
            "buffer" : 0,
            "byteLength" : 2928,
            "byteOffset" : 36904
        },
        {
            "buffer" : 0,
            "byteLength" : 1952,
            "byteOffset" : 39832
        }
    ],
    "buffers" : [
        {
            "byteLength" : 41784,
            "uri" : "faucet.bin"
        }
    ]
}
