{
    "asset" : {
        "generator" : "Khronos glTF Blender I/O v1.2.75",
        "version" : "2.0"
    },
    "scene" : 0,
    "scenes" : [
        {
            "name" : "Scene",
            "nodes" : [
                0,
                1,
                2
            ]
        }
    ],
    "nodes" : [
        {
            "name" : "Light",
            "rotation" : [
                0.16907575726509094,
                0.7558803558349609,
                -0.27217137813568115,
                0.570947527885437
            ],
            "translation" : [
                4.076245307922363,
                5.903861999511719,
                -1.0054539442062378
            ]
        },
        {
            "name" : "Camera",
            "rotation" : [
                0.483536034822464,
                0.33687159419059753,
                -0.20870360732078552,
                0.7804827094078064
            ],
            "translation" : [
                7.358891487121582,
                4.958309173583984,
                6.925790786743164
            ]
        },
        {
            "mesh" : 0,
            "name" : "Cylinder",
            "scale" : [
                5.312114238739014,
                6.693610668182373,
                5.312114238739014
            ]
        }
    ],
    "materials" : [
        {
            "doubleSided" : true,
            "emissiveFactor" : [
                0,
                0,
                0
            ],
            "name" : "Material.001",
            "pbrMetallicRoughness" : {
                "baseColorFactor" : [
                    0.2754356265068054,
                    0.03631440922617912,
                    0.03727351874113083,
                    1
                ],
                "metallicFactor" : 0.800000011920929,
                "roughnessFactor" : 0
            }
        },
        {
            "doubleSided" : true,
            "emissiveFactor" : [
                0,
                0,
                0
            ],
            "name" : "Material.002",
            "pbrMetallicRoughness" : {
                "baseColorFactor" : [
                    0.5121596455574036,
                    0.5121596455574036,
                    0.5121596455574036,
                    1
                ],
                "metallicFactor" : 0.800000011920929,
                "roughnessFactor" : 0.5
            }
        }
    ],
    "meshes" : [
        {
            "name" : "Cylinder",
            "primitives" : [
                {
                    "attributes" : {
                        "POSITION" : 0,
                        "NORMAL" : 1,
                        "TEXCOORD_0" : 2
                    },
                    "indices" : 3,
                    "material" : 0
                },
                {
                    "attributes" : {
                        "POSITION" : 4,
                        "NORMAL" : 5,
                        "TEXCOORD_0" : 6
                    },
                    "indices" : 7,
                    "material" : 1
                }
            ]
        }
    ],
    "accessors" : [
        {
            "bufferView" : 0,
            "componentType" : 5126,
            "count" : 194,
            "max" : [
                1,
                1.163308024406433,
                1
            ],
            "min" : [
                -1,
                -1.163308024406433,
                -1
            ],
            "type" : "VEC3"
        },
        {
            "bufferView" : 1,
            "componentType" : 5126,
            "count" : 194,
            "type" : "VEC3"
        },
        {
            "bufferView" : 2,
            "componentType" : 5126,
            "count" : 194,
            "type" : "VEC2"
        },
        {
            "bufferView" : 3,
            "componentType" : 5123,
            "count" : 576,
            "type" : "SCALAR"
        },
        {
            "bufferView" : 4,
            "componentType" : 5126,
            "count" : 384,
            "max" : [
                0.923287034034729,
                1.2181885242462158,
                0.9232869744300842
            ],
            "min" : [
                -0.923287034034729,
                -1.2181885242462158,
                -0.923287034034729
            ],
            "type" : "VEC3"
        },
        {
            "bufferView" : 5,
            "componentType" : 5126,
            "count" : 384,
            "type" : "VEC3"
        },
        {
            "bufferView" : 6,
            "componentType" : 5126,
            "count" : 384,
            "type" : "VEC2"
        },
        {
            "bufferView" : 7,
            "componentType" : 5123,
            "count" : 2100,
            "type" : "SCALAR"
        }
    ],
    "bufferViews" : [
        {
            "buffer" : 0,
            "byteLength" : 2328,
            "byteOffset" : 0
        },
        {
            "buffer" : 0,
            "byteLength" : 2328,
            "byteOffset" : 2328
        },
        {
            "buffer" : 0,
            "byteLength" : 1552,
            "byteOffset" : 4656
        },
        {
            "buffer" : 0,
            "byteLength" : 1152,
            "byteOffset" : 6208
        },
        {
            "buffer" : 0,
            "byteLength" : 4608,
            "byteOffset" : 7360
        },
        {
            "buffer" : 0,
            "byteLength" : 4608,
            "byteOffset" : 11968
        },
        {
            "buffer" : 0,
            "byteLength" : 3072,
            "byteOffset" : 16576
        },
        {
            "buffer" : 0,
            "byteLength" : 4200,
            "byteOffset" : 19648
        }
    ],
    "buffers" : [
        {
            "byteLength" : 23848,
            "uri" : "can.bin"
        }
    ]
}
