{
    "asset" : {
        "generator" : "Khronos glTF Blender I/O v1.2.75",
        "version" : "2.0"
    },
    "scene" : 0,
    "scenes" : [
        {
            "name" : "Scene",
            "nodes" : [
                0,
                1,
                2
            ]
        }
    ],
    "nodes" : [
        {
            "name" : "Light",
            "rotation" : [
                0.16907575726509094,
                0.7558803558349609,
                -0.27217137813568115,
                0.570947527885437
            ],
            "translation" : [
                4.076245307922363,
                5.903861999511719,
                -1.0054539442062378
            ]
        },
        {
            "name" : "Camera",
            "rotation" : [
                0.483536034822464,
                0.33687159419059753,
                -0.20870360732078552,
                0.7804827094078064
            ],
            "translation" : [
                7.358891487121582,
                4.958309173583984,
                6.925790786743164
            ]
        },
        {
            "mesh" : 0,
            "name" : "\u7acb\u65b9\u9ad4",
            "rotation" : [
                0,
                0.7071067690849304,
                0,
                0.7071068286895752
            ],
            "scale" : [
                1.1890302896499634,
                1,
                1.1904792785644531
            ]
        }
    ],
    "materials" : [
        {
            "doubleSided" : true,
            "emissiveFactor" : [
                0,
                0,
                0
            ],
            "name" : "\u6750\u8cea",
            "pbrMetallicRoughness" : {
                "baseColorFactor" : [
                    0.4563697278499603,
                    0.8000000715255737,
                    0.26504623889923096,
                    1
                ],
                "metallicFactor" : 0,
                "metallicRoughnessTexture" : {
                    "index" : 0,
                    "texCoord" : 0
                }
            }
        },
        {
            "doubleSided" : true,
            "emissiveFactor" : [
                0,
                0,
                0
            ],
            "name" : "\u6750\u8cea.001",
            "pbrMetallicRoughness" : {
                "baseColorFactor" : [
                    0,
                    0,
                    0,
                    1
                ],
                "metallicFactor" : 0,
                "roughnessFactor" : 0.5
            }
        },
        {
            "doubleSided" : true,
            "emissiveFactor" : [
                0,
                0,
                0
            ],
            "name" : "\u6750\u8cea.002",
            "pbrMetallicRoughness" : {
                "baseColorFactor" : [
                    0.8000000715255737,
                    0.14579461514949799,
                    0.11682356894016266,
                    1
                ],
                "metallicFactor" : 0,
                "roughnessFactor" : 0.5
            }
        }
    ],
    "meshes" : [
        {
            "name" : "\u7acb\u65b9\u9ad4",
            "primitives" : [
                {
                    "attributes" : {
                        "POSITION" : 0,
                        "NORMAL" : 1,
                        "TEXCOORD_0" : 2
                    },
                    "indices" : 3,
                    "material" : 0
                },
                {
                    "attributes" : {
                        "POSITION" : 4,
                        "NORMAL" : 5,
                        "TEXCOORD_0" : 6
                    },
                    "indices" : 7,
                    "material" : 1
                },
                {
                    "attributes" : {
                        "POSITION" : 8,
                        "NORMAL" : 9,
                        "TEXCOORD_0" : 10
                    },
                    "indices" : 11,
                    "material" : 2
                }
            ]
        }
    ],
    "textures" : [
        {
            "source" : 0
        }
    ],
    "images" : [
        {
            "mimeType" : "image/png",
            "name" : "tt1",
            "uri" : "tt1.png"
        }
    ],
    "accessors" : [
        {
            "bufferView" : 0,
            "componentType" : 5126,
            "count" : 2651,
            "max" : [
                0.8371435403823853,
                0.8592614531517029,
                0.7926183342933655
            ],
            "min" : [
                -0.7883435487747192,
                -0.7655733823776245,
                -0.7926182746887207
            ],
            "type" : "VEC3"
        },
        {
            "bufferView" : 1,
            "componentType" : 5126,
            "count" : 2651,
            "type" : "VEC3"
        },
        {
            "bufferView" : 2,
            "componentType" : 5126,
            "count" : 2651,
            "type" : "VEC2"
        },
        {
            "bufferView" : 3,
            "componentType" : 5123,
            "count" : 14208,
            "type" : "SCALAR"
        },
        {
            "bufferView" : 4,
            "componentType" : 5126,
            "count" : 520,
            "max" : [
                0.8042306900024414,
                0.2444058060646057,
                0.4409935772418976
            ],
            "min" : [
                0.7034081220626831,
                0.04162365198135376,
                -0.4409934878349304
            ],
            "type" : "VEC3"
        },
        {
            "bufferView" : 5,
            "componentType" : 5126,
            "count" : 520,
            "type" : "VEC3"
        },
        {
            "bufferView" : 6,
            "componentType" : 5126,
            "count" : 520,
            "type" : "VEC2"
        },
        {
            "bufferView" : 7,
            "componentType" : 5123,
            "count" : 1920,
            "type" : "SCALAR"
        },
        {
            "bufferView" : 8,
            "componentType" : 5126,
            "count" : 242,
            "max" : [
                0.8517764806747437,
                -0.003381013870239258,
                0.11371951550245285
            ],
            "min" : [
                0.7998034954071045,
                -0.1322627067565918,
                -0.11371944844722748
            ],
            "type" : "VEC3"
        },
        {
            "bufferView" : 9,
            "componentType" : 5126,
            "count" : 242,
            "type" : "VEC3"
        },
        {
            "bufferView" : 10,
            "componentType" : 5126,
            "count" : 242,
            "type" : "VEC2"
        },
        {
            "bufferView" : 11,
            "componentType" : 5123,
            "count" : 960,
            "type" : "SCALAR"
        }
    ],
    "bufferViews" : [
        {
            "buffer" : 0,
            "byteLength" : 31812,
            "byteOffset" : 0
        },
        {
            "buffer" : 0,
            "byteLength" : 31812,
            "byteOffset" : 31812
        },
        {
            "buffer" : 0,
            "byteLength" : 21208,
            "byteOffset" : 63624
        },
        {
            "buffer" : 0,
            "byteLength" : 28416,
            "byteOffset" : 84832
        },
        {
            "buffer" : 0,
            "byteLength" : 6240,
            "byteOffset" : 113248
        },
        {
            "buffer" : 0,
            "byteLength" : 6240,
            "byteOffset" : 119488
        },
        {
            "buffer" : 0,
            "byteLength" : 4160,
            "byteOffset" : 125728
        },
        {
            "buffer" : 0,
            "byteLength" : 3840,
            "byteOffset" : 129888
        },
        {
            "buffer" : 0,
            "byteLength" : 2904,
            "byteOffset" : 133728
        },
        {
            "buffer" : 0,
            "byteLength" : 2904,
            "byteOffset" : 136632
        },
        {
            "buffer" : 0,
            "byteLength" : 1936,
            "byteOffset" : 139536
        },
        {
            "buffer" : 0,
            "byteLength" : 1920,
            "byteOffset" : 141472
        }
    ],
    "buffers" : [
        {
            "byteLength" : 143392,
            "uri" : "dango3.bin"
        }
    ]
}
