{
    "asset" : {
        "generator" : "Khronos glTF Blender I/O v1.2.75",
        "version" : "2.0"
    },
    "scene" : 0,
    "scenes" : [
        {
            "name" : "Scene",
            "nodes" : [
                0,
                1,
                2
            ]
        }
    ],
    "nodes" : [
        {
            "name" : "Light",
            "rotation" : [
                0.16907575726509094,
                0.7558803558349609,
                -0.27217137813568115,
                0.570947527885437
            ],
            "translation" : [
                4.076245307922363,
                5.903861999511719,
                -1.0054539442062378
            ]
        },
        {
            "name" : "Camera",
            "rotation" : [
                0.483536034822464,
                0.33687159419059753,
                -0.20870360732078552,
                0.7804827094078064
            ],
            "translation" : [
                7.358891487121582,
                4.958309173583984,
                6.925790786743164
            ]
        },
        {
            "mesh" : 0,
            "name" : "\u7acb\u65b9\u9ad4",
            "rotation" : [
                0,
                0.7071067690849304,
                0,
                0.7071068286895752
            ],
            "scale" : [
                1.1890302896499634,
                1,
                1.1904792785644531
            ]
        }
    ],
    "materials" : [
        {
            "doubleSided" : true,
            "emissiveFactor" : [
                0,
                0,
                0
            ],
            "name" : "\u6750\u8cea",
            "pbrMetallicRoughness" : {
                "baseColorFactor" : [
                    0.8000000715255737,
                    0.31573593616485596,
                    0.6313902735710144,
                    1
                ],
                "metallicFactor" : 0,
                "metallicRoughnessTexture" : {
                    "index" : 0,
                    "texCoord" : 0
                }
            }
        },
        {
            "doubleSided" : true,
            "emissiveFactor" : [
                0,
                0,
                0
            ],
            "name" : "\u6750\u8cea.001",
            "pbrMetallicRoughness" : {
                "baseColorFactor" : [
                    0,
                    0,
                    0,
                    1
                ],
                "metallicFactor" : 0,
                "roughnessFactor" : 0.5
            }
        },
        {
            "doubleSided" : true,
            "emissiveFactor" : [
                0,
                0,
                0
            ],
            "name" : "\u6750\u8cea.002",
            "pbrMetallicRoughness" : {
                "baseColorFactor" : [
                    0.8000000715255737,
                    0.14579461514949799,
                    0.11682356894016266,
                    1
                ],
                "metallicFactor" : 0,
                "roughnessFactor" : 0.5
            }
        }
    ],
    "meshes" : [
        {
            "name" : "\u7acb\u65b9\u9ad4",
            "primitives" : [
                {
                    "attributes" : {
                        "POSITION" : 0,
                        "NORMAL" : 1,
                        "TEXCOORD_0" : 2
                    },
                    "indices" : 3,
                    "material" : 0
                },
                {
                    "attributes" : {
                        "POSITION" : 4,
                        "NORMAL" : 5,
                        "TEXCOORD_0" : 6
                    },
                    "indices" : 7,
                    "material" : 1
                },
                {
                    "attributes" : {
                        "POSITION" : 8,
                        "NORMAL" : 9,
                        "TEXCOORD_0" : 10
                    },
                    "indices" : 11,
                    "material" : 2
                }
            ]
        }
    ],
    "textures" : [
        {
            "source" : 0
        }
    ],
    "images" : [
        {
            "mimeType" : "image/png",
            "name" : "tt1",
            "uri" : "tt1.png"
        }
    ],
    "accessors" : [
        {
            "bufferView" : 0,
            "componentType" : 5126,
            "count" : 2653,
            "max" : [
                0.8266509771347046,
                0.8549599051475525,
                0.7926183342933655
            ],
            "min" : [
                -0.790561318397522,
                -0.7616046667098999,
                -0.7926182746887207
            ],
            "type" : "VEC3"
        },
        {
            "bufferView" : 1,
            "componentType" : 5126,
            "count" : 2653,
            "type" : "VEC3"
        },
        {
            "bufferView" : 2,
            "componentType" : 5126,
            "count" : 2653,
            "type" : "VEC2"
        },
        {
            "bufferView" : 3,
            "componentType" : 5123,
            "count" : 14208,
            "type" : "SCALAR"
        },
        {
            "bufferView" : 4,
            "componentType" : 5126,
            "count" : 505,
            "max" : [
                0.7978754043579102,
                0.24423950910568237,
                0.44099360704421997
            ],
            "min" : [
                0.6970529556274414,
                0.041457295417785645,
                -0.4409934878349304
            ],
            "type" : "VEC3"
        },
        {
            "bufferView" : 5,
            "componentType" : 5126,
            "count" : 505,
            "type" : "VEC3"
        },
        {
            "bufferView" : 6,
            "componentType" : 5126,
            "count" : 505,
            "type" : "VEC2"
        },
        {
            "bufferView" : 7,
            "componentType" : 5123,
            "count" : 1920,
            "type" : "SCALAR"
        },
        {
            "bufferView" : 8,
            "componentType" : 5126,
            "count" : 259,
            "max" : [
                0.8397259712219238,
                -7.69495964050293e-05,
                0.11371950805187225
            ],
            "min" : [
                0.7929624915122986,
                -0.1309085488319397,
                -0.11371945589780807
            ],
            "type" : "VEC3"
        },
        {
            "bufferView" : 9,
            "componentType" : 5126,
            "count" : 259,
            "type" : "VEC3"
        },
        {
            "bufferView" : 10,
            "componentType" : 5126,
            "count" : 259,
            "type" : "VEC2"
        },
        {
            "bufferView" : 11,
            "componentType" : 5123,
            "count" : 960,
            "type" : "SCALAR"
        }
    ],
    "bufferViews" : [
        {
            "buffer" : 0,
            "byteLength" : 31836,
            "byteOffset" : 0
        },
        {
            "buffer" : 0,
            "byteLength" : 31836,
            "byteOffset" : 31836
        },
        {
            "buffer" : 0,
            "byteLength" : 21224,
            "byteOffset" : 63672
        },
        {
            "buffer" : 0,
            "byteLength" : 28416,
            "byteOffset" : 84896
        },
        {
            "buffer" : 0,
            "byteLength" : 6060,
            "byteOffset" : 113312
        },
        {
            "buffer" : 0,
            "byteLength" : 6060,
            "byteOffset" : 119372
        },
        {
            "buffer" : 0,
            "byteLength" : 4040,
            "byteOffset" : 125432
        },
        {
            "buffer" : 0,
            "byteLength" : 3840,
            "byteOffset" : 129472
        },
        {
            "buffer" : 0,
            "byteLength" : 3108,
            "byteOffset" : 133312
        },
        {
            "buffer" : 0,
            "byteLength" : 3108,
            "byteOffset" : 136420
        },
        {
            "buffer" : 0,
            "byteLength" : 2072,
            "byteOffset" : 139528
        },
        {
            "buffer" : 0,
            "byteLength" : 1920,
            "byteOffset" : 141600
        }
    ],
    "buffers" : [
        {
            "byteLength" : 143520,
            "uri" : "dango2.bin"
        }
    ]
}
