{
    "asset" : {
        "generator" : "Khronos glTF Blender I/O v1.2.75",
        "version" : "2.0"
    },
    "scene" : 0,
    "scenes" : [
        {
            "name" : "Scene",
            "nodes" : [
                0,
                1,
                2
            ]
        }
    ],
    "nodes" : [
        {
            "name" : "Camera",
            "rotation" : [
                0.483536034822464,
                0.33687159419059753,
                -0.20870360732078552,
                0.7804827094078064
            ],
            "translation" : [
                7.358891487121582,
                4.958309173583984,
                6.925790786743164
            ]
        },
        {
            "name" : "Camera.001",
            "rotation" : [
                0.483536034822464,
                0.33687159419059753,
                -0.20870360732078552,
                0.7804827094078064
            ],
            "translation" : [
                25.358890533447266,
                4.958309173583984,
                6.925790786743164
            ]
        },
        {
            "mesh" : 0,
            "name" : "\u5713\u67f1\u9ad4",
            "scale" : [
                49.69431686401367,
                42.93086624145508,
                99.85245513916016
            ],
            "translation" : [
                -9.210000991821289,
                14.569207191467285,
                -53.040164947509766
            ]
        }
    ],
    "meshes" : [
        {
            "name" : "\u5713\u67f1\u9ad4.028",
            "primitives" : [
                {
                    "attributes" : {
                        "POSITION" : 0,
                        "NORMAL" : 1,
                        "TEXCOORD_0" : 2
                    },
                    "indices" : 3
                }
            ]
        }
    ],
    "accessors" : [
        {
            "bufferView" : 0,
            "componentType" : 5126,
            "count" : 438,
            "max" : [
                1,
                1,
                1
            ],
            "min" : [
                -1,
                -1,
                -1
            ],
            "type" : "VEC3"
        },
        {
            "bufferView" : 1,
            "componentType" : 5126,
            "count" : 438,
            "type" : "VEC3"
        },
        {
            "bufferView" : 2,
            "componentType" : 5126,
            "count" : 438,
            "type" : "VEC2"
        },
        {
            "bufferView" : 3,
            "componentType" : 5123,
            "count" : 1728,
            "type" : "SCALAR"
        }
    ],
    "bufferViews" : [
        {
            "buffer" : 0,
            "byteLength" : 5256,
            "byteOffset" : 0
        },
        {
            "buffer" : 0,
            "byteLength" : 5256,
            "byteOffset" : 5256
        },
        {
            "buffer" : 0,
            "byteLength" : 3504,
            "byteOffset" : 10512
        },
        {
            "buffer" : 0,
            "byteLength" : 3456,
            "byteOffset" : 14016
        }
    ],
    "buffers" : [
        {
            "byteLength" : 17472,
            "uri" : "backshell.bin"
        }
    ]
}
